<mxfile host="drawio-plugin" modified="2024-07-11T01:14:33.494Z" agent="Mozilla/5.0 (Windows NT 10.0; Win64; x64) AppleWebKit/537.36 (KHTML, like Gecko) Chrome/122.0.0.0 Safari/537.36" etag="d3jFM44-x-KxptGP2VMJ" version="22.1.22" type="embed">
  <diagram id="23iRSUPoRavnBvh4doch" name="Page-1">
    <mxGraphModel dx="453" dy="448" grid="1" gridSize="10" guides="1" tooltips="1" connect="1" arrows="1" fold="1" page="1" pageScale="1" pageWidth="827" pageHeight="1169" math="0" shadow="0">
      <root>
        <mxCell id="0" />
        <mxCell id="1" parent="0" />
        <mxCell id="9" style="edgeStyle=orthogonalEdgeStyle;rounded=0;orthogonalLoop=1;jettySize=auto;html=1;entryX=0.5;entryY=0;entryDx=0;entryDy=0;" edge="1" parent="1" source="2" target="3">
          <mxGeometry relative="1" as="geometry" />
        </mxCell>
        <mxCell id="2" value="levenshtein_distance(_first: str, _last: str)" style="ellipse;whiteSpace=wrap;html=1;" vertex="1" parent="1">
          <mxGeometry x="30" y="70" width="240" height="60" as="geometry" />
        </mxCell>
        <mxCell id="10" style="edgeStyle=orthogonalEdgeStyle;rounded=0;orthogonalLoop=1;jettySize=auto;html=1;" edge="1" parent="1" source="3" target="4">
          <mxGeometry relative="1" as="geometry" />
        </mxCell>
        <mxCell id="33" style="edgeStyle=orthogonalEdgeStyle;rounded=0;orthogonalLoop=1;jettySize=auto;html=1;" edge="1" parent="1" source="3" target="21">
          <mxGeometry relative="1" as="geometry">
            <Array as="points">
              <mxPoint x="100" y="590" />
            </Array>
          </mxGeometry>
        </mxCell>
        <mxCell id="34" style="edgeStyle=orthogonalEdgeStyle;rounded=0;orthogonalLoop=1;jettySize=auto;html=1;" edge="1" parent="1" source="3" target="28">
          <mxGeometry relative="1" as="geometry">
            <mxPoint x="80" y="580" as="targetPoint" />
            <Array as="points">
              <mxPoint x="60" y="205" />
              <mxPoint x="60" y="760" />
            </Array>
          </mxGeometry>
        </mxCell>
        <mxCell id="47" style="edgeStyle=orthogonalEdgeStyle;rounded=0;orthogonalLoop=1;jettySize=auto;html=1;entryX=0;entryY=0.5;entryDx=0;entryDy=0;" edge="1" parent="1" source="3" target="37">
          <mxGeometry relative="1" as="geometry">
            <mxPoint x="30" y="840" as="targetPoint" />
            <Array as="points">
              <mxPoint x="40" y="205" />
              <mxPoint x="40" y="939" />
            </Array>
          </mxGeometry>
        </mxCell>
        <mxCell id="3" value="&lt;div&gt;first_len = len(_first) + 1&lt;/div&gt;&lt;div&gt;&amp;nbsp; &amp;nbsp; last_len = len(_last) + 1&lt;/div&gt;" style="ellipse;whiteSpace=wrap;html=1;" vertex="1" parent="1">
          <mxGeometry x="75" y="170" width="150" height="70" as="geometry" />
        </mxCell>
        <mxCell id="11" style="rounded=0;orthogonalLoop=1;jettySize=auto;html=1;" edge="1" parent="1" source="4" target="6">
          <mxGeometry relative="1" as="geometry" />
        </mxCell>
        <mxCell id="4" value="for" style="ellipse;whiteSpace=wrap;html=1;" vertex="1" parent="1">
          <mxGeometry x="125" y="270" width="50" height="40" as="geometry" />
        </mxCell>
        <mxCell id="16" style="edgeStyle=orthogonalEdgeStyle;rounded=0;orthogonalLoop=1;jettySize=auto;html=1;curved=1;" edge="1" parent="1" source="5" target="4">
          <mxGeometry relative="1" as="geometry">
            <Array as="points">
              <mxPoint x="410" y="500" />
              <mxPoint x="410" y="290" />
            </Array>
          </mxGeometry>
        </mxCell>
        <mxCell id="5" value="end for" style="ellipse;whiteSpace=wrap;html=1;" vertex="1" parent="1">
          <mxGeometry x="120" y="480" width="55" height="40" as="geometry" />
        </mxCell>
        <mxCell id="12" style="rounded=0;orthogonalLoop=1;jettySize=auto;html=1;" edge="1" parent="1" source="6" target="8">
          <mxGeometry relative="1" as="geometry" />
        </mxCell>
        <mxCell id="6" value="for" style="ellipse;whiteSpace=wrap;html=1;" vertex="1" parent="1">
          <mxGeometry x="180" y="320" width="50" height="40" as="geometry" />
        </mxCell>
        <mxCell id="14" style="rounded=0;orthogonalLoop=1;jettySize=auto;html=1;" edge="1" parent="1" source="7" target="5">
          <mxGeometry relative="1" as="geometry" />
        </mxCell>
        <mxCell id="15" style="edgeStyle=orthogonalEdgeStyle;rounded=0;orthogonalLoop=1;jettySize=auto;html=1;entryX=1;entryY=0.5;entryDx=0;entryDy=0;curved=1;" edge="1" parent="1" source="7" target="6">
          <mxGeometry relative="1" as="geometry">
            <Array as="points">
              <mxPoint x="370" y="450" />
              <mxPoint x="370" y="340" />
            </Array>
          </mxGeometry>
        </mxCell>
        <mxCell id="7" value="end for" style="ellipse;whiteSpace=wrap;html=1;" vertex="1" parent="1">
          <mxGeometry x="180" y="430" width="55" height="40" as="geometry" />
        </mxCell>
        <mxCell id="13" style="rounded=0;orthogonalLoop=1;jettySize=auto;html=1;" edge="1" parent="1" source="8" target="7">
          <mxGeometry relative="1" as="geometry" />
        </mxCell>
        <mxCell id="8" value="matrix[i][j] = 0&amp;nbsp;" style="ellipse;whiteSpace=wrap;html=1;" vertex="1" parent="1">
          <mxGeometry x="230" y="360" width="90" height="50" as="geometry" />
        </mxCell>
        <mxCell id="20" style="rounded=0;orthogonalLoop=1;jettySize=auto;html=1;" edge="1" parent="1" source="21" target="26">
          <mxGeometry relative="1" as="geometry" />
        </mxCell>
        <mxCell id="21" value="for" style="ellipse;whiteSpace=wrap;html=1;" vertex="1" parent="1">
          <mxGeometry x="130" y="570" width="50" height="40" as="geometry" />
        </mxCell>
        <mxCell id="23" style="edgeStyle=orthogonalEdgeStyle;rounded=0;orthogonalLoop=1;jettySize=auto;html=1;entryX=1;entryY=0.5;entryDx=0;entryDy=0;curved=1;" edge="1" parent="1" source="24" target="21">
          <mxGeometry relative="1" as="geometry">
            <Array as="points">
              <mxPoint x="320" y="700" />
              <mxPoint x="320" y="590" />
            </Array>
          </mxGeometry>
        </mxCell>
        <mxCell id="24" value="end for" style="ellipse;whiteSpace=wrap;html=1;" vertex="1" parent="1">
          <mxGeometry x="130" y="680" width="55" height="40" as="geometry" />
        </mxCell>
        <mxCell id="25" style="rounded=0;orthogonalLoop=1;jettySize=auto;html=1;" edge="1" parent="1" source="26" target="24">
          <mxGeometry relative="1" as="geometry" />
        </mxCell>
        <mxCell id="26" value="matrix[i][0] = i" style="ellipse;whiteSpace=wrap;html=1;" vertex="1" parent="1">
          <mxGeometry x="180" y="610" width="90" height="50" as="geometry" />
        </mxCell>
        <mxCell id="27" style="rounded=0;orthogonalLoop=1;jettySize=auto;html=1;" edge="1" parent="1" source="28" target="32">
          <mxGeometry relative="1" as="geometry" />
        </mxCell>
        <mxCell id="28" value="for" style="ellipse;whiteSpace=wrap;html=1;" vertex="1" parent="1">
          <mxGeometry x="130" y="740" width="50" height="40" as="geometry" />
        </mxCell>
        <mxCell id="29" style="edgeStyle=orthogonalEdgeStyle;rounded=0;orthogonalLoop=1;jettySize=auto;html=1;entryX=1;entryY=0.5;entryDx=0;entryDy=0;curved=1;" edge="1" parent="1" source="30" target="28">
          <mxGeometry relative="1" as="geometry">
            <Array as="points">
              <mxPoint x="320" y="870" />
              <mxPoint x="320" y="760" />
            </Array>
          </mxGeometry>
        </mxCell>
        <mxCell id="63" style="edgeStyle=orthogonalEdgeStyle;rounded=0;orthogonalLoop=1;jettySize=auto;html=1;entryX=0;entryY=0.5;entryDx=0;entryDy=0;" edge="1" parent="1" source="30" target="52">
          <mxGeometry relative="1" as="geometry">
            <Array as="points">
              <mxPoint x="100" y="870" />
              <mxPoint x="100" y="1246" />
            </Array>
          </mxGeometry>
        </mxCell>
        <mxCell id="30" value="end for" style="ellipse;whiteSpace=wrap;html=1;" vertex="1" parent="1">
          <mxGeometry x="130" y="850" width="55" height="40" as="geometry" />
        </mxCell>
        <mxCell id="31" style="rounded=0;orthogonalLoop=1;jettySize=auto;html=1;" edge="1" parent="1" source="32" target="30">
          <mxGeometry relative="1" as="geometry" />
        </mxCell>
        <mxCell id="32" value="matrix[0][i] = i" style="ellipse;whiteSpace=wrap;html=1;" vertex="1" parent="1">
          <mxGeometry x="180" y="780" width="90" height="50" as="geometry" />
        </mxCell>
        <mxCell id="36" style="rounded=0;orthogonalLoop=1;jettySize=auto;html=1;" edge="1" parent="1" source="37" target="41">
          <mxGeometry relative="1" as="geometry" />
        </mxCell>
        <mxCell id="37" value="for" style="ellipse;whiteSpace=wrap;html=1;" vertex="1" parent="1">
          <mxGeometry x="130" y="919" width="50" height="40" as="geometry" />
        </mxCell>
        <mxCell id="38" style="edgeStyle=orthogonalEdgeStyle;rounded=0;orthogonalLoop=1;jettySize=auto;html=1;curved=1;" edge="1" parent="1" source="39" target="37">
          <mxGeometry relative="1" as="geometry">
            <Array as="points">
              <mxPoint x="415" y="1360" />
              <mxPoint x="415" y="939" />
            </Array>
          </mxGeometry>
        </mxCell>
        <mxCell id="58" style="rounded=0;orthogonalLoop=1;jettySize=auto;html=1;" edge="1" parent="1" source="39" target="57">
          <mxGeometry relative="1" as="geometry" />
        </mxCell>
        <mxCell id="39" value="end for" style="ellipse;whiteSpace=wrap;html=1;" vertex="1" parent="1">
          <mxGeometry x="120" y="1340" width="55" height="40" as="geometry" />
        </mxCell>
        <mxCell id="40" style="rounded=0;orthogonalLoop=1;jettySize=auto;html=1;" edge="1" parent="1" source="41" target="46">
          <mxGeometry relative="1" as="geometry" />
        </mxCell>
        <mxCell id="41" value="for" style="ellipse;whiteSpace=wrap;html=1;" vertex="1" parent="1">
          <mxGeometry x="185" y="969" width="50" height="40" as="geometry" />
        </mxCell>
        <mxCell id="42" style="rounded=0;orthogonalLoop=1;jettySize=auto;html=1;" edge="1" parent="1" source="44" target="39">
          <mxGeometry relative="1" as="geometry" />
        </mxCell>
        <mxCell id="43" style="edgeStyle=orthogonalEdgeStyle;rounded=0;orthogonalLoop=1;jettySize=auto;html=1;entryX=1;entryY=0.5;entryDx=0;entryDy=0;curved=1;" edge="1" parent="1" source="44" target="41">
          <mxGeometry relative="1" as="geometry">
            <Array as="points">
              <mxPoint x="375" y="1320" />
              <mxPoint x="375" y="989" />
            </Array>
          </mxGeometry>
        </mxCell>
        <mxCell id="44" value="end for" style="ellipse;whiteSpace=wrap;html=1;" vertex="1" parent="1">
          <mxGeometry x="197.5" y="1300" width="55" height="40" as="geometry" />
        </mxCell>
        <mxCell id="50" style="rounded=0;orthogonalLoop=1;jettySize=auto;html=1;" edge="1" parent="1" source="46" target="49">
          <mxGeometry relative="1" as="geometry" />
        </mxCell>
        <mxCell id="51" style="rounded=0;orthogonalLoop=1;jettySize=auto;html=1;" edge="1" parent="1" source="46" target="48">
          <mxGeometry relative="1" as="geometry" />
        </mxCell>
        <mxCell id="46" value="if _first[i - 1] == _last[j - 1" style="ellipse;whiteSpace=wrap;html=1;" vertex="1" parent="1">
          <mxGeometry x="225" y="1030" width="105" height="50" as="geometry" />
        </mxCell>
        <mxCell id="61" style="rounded=0;orthogonalLoop=1;jettySize=auto;html=1;entryX=0;entryY=0.5;entryDx=0;entryDy=0;" edge="1" parent="1" source="48" target="59">
          <mxGeometry relative="1" as="geometry" />
        </mxCell>
        <mxCell id="48" value="cost = 0" style="ellipse;whiteSpace=wrap;html=1;" vertex="1" parent="1">
          <mxGeometry x="220" y="1100" width="50" height="31" as="geometry" />
        </mxCell>
        <mxCell id="60" style="rounded=0;orthogonalLoop=1;jettySize=auto;html=1;" edge="1" parent="1" source="49" target="59">
          <mxGeometry relative="1" as="geometry" />
        </mxCell>
        <mxCell id="49" value="cost = 1" style="ellipse;whiteSpace=wrap;html=1;" vertex="1" parent="1">
          <mxGeometry x="300" y="1100" width="50" height="31" as="geometry" />
        </mxCell>
        <mxCell id="56" style="rounded=0;orthogonalLoop=1;jettySize=auto;html=1;" edge="1" parent="1" source="52" target="44">
          <mxGeometry relative="1" as="geometry" />
        </mxCell>
        <mxCell id="52" value="&lt;div&gt;matrix[i][j] = min(&lt;/div&gt;&lt;div&gt;&amp;nbsp; &amp;nbsp; &amp;nbsp; &amp;nbsp; &amp;nbsp; &amp;nbsp; &amp;nbsp; &amp;nbsp; matrix[i - 1][j] + 1,&lt;/div&gt;&lt;div&gt;&amp;nbsp; &amp;nbsp; &amp;nbsp; &amp;nbsp; &amp;nbsp; &amp;nbsp; &amp;nbsp; &amp;nbsp; matrix[i][j - 1] + 1,&lt;/div&gt;&lt;div&gt;&amp;nbsp; &amp;nbsp; &amp;nbsp; &amp;nbsp; &amp;nbsp; &amp;nbsp; &amp;nbsp; &amp;nbsp; matrix[i - 1][j - 1] + cost&lt;/div&gt;&lt;div&gt;&amp;nbsp; &amp;nbsp; &amp;nbsp; &amp;nbsp; &amp;nbsp; &amp;nbsp; )&lt;/div&gt;" style="ellipse;whiteSpace=wrap;html=1;" vertex="1" parent="1">
          <mxGeometry x="170" y="1200" width="180" height="91" as="geometry" />
        </mxCell>
        <mxCell id="57" value="return matrix[first_len - 1][last_len - 1]" style="ellipse;whiteSpace=wrap;html=1;" vertex="1" parent="1">
          <mxGeometry x="82.5" y="1420" width="170" height="60" as="geometry" />
        </mxCell>
        <mxCell id="62" style="rounded=0;orthogonalLoop=1;jettySize=auto;html=1;" edge="1" parent="1" source="59" target="52">
          <mxGeometry relative="1" as="geometry" />
        </mxCell>
        <mxCell id="59" value="end if" style="ellipse;whiteSpace=wrap;html=1;" vertex="1" parent="1">
          <mxGeometry x="260" y="1140" width="50" height="40" as="geometry" />
        </mxCell>
        <mxCell id="66" style="edgeStyle=orthogonalEdgeStyle;rounded=0;orthogonalLoop=1;jettySize=auto;html=1;" edge="1" parent="1" source="64" target="65">
          <mxGeometry relative="1" as="geometry" />
        </mxCell>
        <mxCell id="64" value="binary_to_text(binary_string: str)" style="ellipse;whiteSpace=wrap;html=1;" vertex="1" parent="1">
          <mxGeometry x="570" y="80" width="200" height="50" as="geometry" />
        </mxCell>
        <mxCell id="72" style="rounded=0;orthogonalLoop=1;jettySize=auto;html=1;" edge="1" parent="1" source="65" target="67">
          <mxGeometry relative="1" as="geometry" />
        </mxCell>
        <mxCell id="65" value="binary_string.replace(&quot; &quot;, &quot;&quot;)" style="ellipse;whiteSpace=wrap;html=1;" vertex="1" parent="1">
          <mxGeometry x="590" y="170" width="160" height="50" as="geometry" />
        </mxCell>
        <mxCell id="70" style="rounded=0;orthogonalLoop=1;jettySize=auto;html=1;" edge="1" parent="1" source="67" target="69">
          <mxGeometry relative="1" as="geometry" />
        </mxCell>
        <mxCell id="67" value="for" style="ellipse;whiteSpace=wrap;html=1;" vertex="1" parent="1">
          <mxGeometry x="640" y="260" width="50" height="40" as="geometry" />
        </mxCell>
        <mxCell id="74" style="rounded=0;orthogonalLoop=1;jettySize=auto;html=1;" edge="1" parent="1" source="68" target="73">
          <mxGeometry relative="1" as="geometry" />
        </mxCell>
        <mxCell id="68" value="end for" style="ellipse;whiteSpace=wrap;html=1;" vertex="1" parent="1">
          <mxGeometry x="640" y="390" width="50" height="40" as="geometry" />
        </mxCell>
        <mxCell id="71" style="rounded=0;orthogonalLoop=1;jettySize=auto;html=1;" edge="1" parent="1" source="69" target="68">
          <mxGeometry relative="1" as="geometry" />
        </mxCell>
        <mxCell id="69" value="&#39;&#39;.join(chr(int(binary_string[i * 8:i * 8 + 8], 2))" style="ellipse;whiteSpace=wrap;html=1;" vertex="1" parent="1">
          <mxGeometry x="670" y="310" width="243" height="70" as="geometry" />
        </mxCell>
        <mxCell id="73" value="return" style="ellipse;whiteSpace=wrap;html=1;" vertex="1" parent="1">
          <mxGeometry x="630" y="470" width="60" height="40" as="geometry" />
        </mxCell>
        <mxCell id="80" style="rounded=0;orthogonalLoop=1;jettySize=auto;html=1;" edge="1" parent="1" source="75" target="76">
          <mxGeometry relative="1" as="geometry" />
        </mxCell>
        <mxCell id="75" value="calculate_distance(first_word, last_word)" style="ellipse;whiteSpace=wrap;html=1;" vertex="1" parent="1">
          <mxGeometry x="1030" y="70" width="230" height="60" as="geometry" />
        </mxCell>
        <mxCell id="81" style="rounded=0;orthogonalLoop=1;jettySize=auto;html=1;" edge="1" parent="1" source="76" target="77">
          <mxGeometry relative="1" as="geometry" />
        </mxCell>
        <mxCell id="82" style="rounded=0;orthogonalLoop=1;jettySize=auto;html=1;" edge="1" parent="1" source="76" target="78">
          <mxGeometry relative="1" as="geometry" />
        </mxCell>
        <mxCell id="76" value="if" style="ellipse;whiteSpace=wrap;html=1;" vertex="1" parent="1">
          <mxGeometry x="1130" y="160" width="50" height="40" as="geometry" />
        </mxCell>
        <mxCell id="83" style="rounded=0;orthogonalLoop=1;jettySize=auto;html=1;" edge="1" parent="1" source="77" target="79">
          <mxGeometry relative="1" as="geometry" />
        </mxCell>
        <mxCell id="77" value="messagebox.showinfo(&quot;Result&quot;, f&quot;The Levenshtein distance is: {levenshtein_distance(first_word, last_word)}&quot;)" style="ellipse;whiteSpace=wrap;html=1;" vertex="1" parent="1">
          <mxGeometry x="970" y="220" width="190" height="120" as="geometry" />
        </mxCell>
        <mxCell id="84" style="rounded=0;orthogonalLoop=1;jettySize=auto;html=1;" edge="1" parent="1" source="78" target="79">
          <mxGeometry relative="1" as="geometry" />
        </mxCell>
        <mxCell id="78" value="messagebox.showerror(&#39;Only letters&#39;, &#39;Binary must be a text!&#39;)" style="ellipse;whiteSpace=wrap;html=1;" vertex="1" parent="1">
          <mxGeometry x="1200" y="230" width="210" height="80" as="geometry" />
        </mxCell>
        <mxCell id="79" value="end if" style="ellipse;whiteSpace=wrap;html=1;" vertex="1" parent="1">
          <mxGeometry x="1130" y="380" width="70" height="50" as="geometry" />
        </mxCell>
        <mxCell id="85" value="check_binary()" style="ellipse;whiteSpace=wrap;html=1;" vertex="1" parent="1">
          <mxGeometry x="1570" y="75" width="120" height="50" as="geometry" />
        </mxCell>
        <mxCell id="90" style="edgeStyle=orthogonalEdgeStyle;rounded=0;orthogonalLoop=1;jettySize=auto;html=1;" edge="1" parent="1" source="86" target="87">
          <mxGeometry relative="1" as="geometry" />
        </mxCell>
        <mxCell id="86" value="&lt;div&gt;_entry_first = entry_first.get()&lt;/div&gt;&lt;div&gt;&amp;nbsp; &amp;nbsp; _entry_last = entry_last.get()&lt;/div&gt;" style="ellipse;whiteSpace=wrap;html=1;" vertex="1" parent="1">
          <mxGeometry x="1540" y="170" width="210" height="60" as="geometry" />
        </mxCell>
        <mxCell id="91" style="rounded=0;orthogonalLoop=1;jettySize=auto;html=1;" edge="1" parent="1" source="87" target="88">
          <mxGeometry relative="1" as="geometry" />
        </mxCell>
        <mxCell id="92" style="rounded=0;orthogonalLoop=1;jettySize=auto;html=1;" edge="1" parent="1" source="87" target="89">
          <mxGeometry relative="1" as="geometry" />
        </mxCell>
        <mxCell id="87" value="if" style="ellipse;whiteSpace=wrap;html=1;" vertex="1" parent="1">
          <mxGeometry x="1625" y="280" width="40" height="40" as="geometry" />
        </mxCell>
        <mxCell id="102" style="rounded=0;orthogonalLoop=1;jettySize=auto;html=1;" edge="1" parent="1" source="88" target="100">
          <mxGeometry relative="1" as="geometry" />
        </mxCell>
        <mxCell id="88" value="messagebox.showerror(&#39;Invalid input&#39;, &#39;Please enter valid binary words&#39;)" style="ellipse;whiteSpace=wrap;html=1;" vertex="1" parent="1">
          <mxGeometry x="1680" y="365" width="196" height="90" as="geometry" />
        </mxCell>
        <mxCell id="95" style="rounded=0;orthogonalLoop=1;jettySize=auto;html=1;" edge="1" parent="1" source="89" target="93">
          <mxGeometry relative="1" as="geometry" />
        </mxCell>
        <mxCell id="89" value="&lt;div&gt;first_word = binary_to_text(_entry_first)&lt;/div&gt;&lt;div&gt;&amp;nbsp; &amp;nbsp; &amp;nbsp; &amp;nbsp; last_word = binary_to_text(_entry_last)&lt;/div&gt;" style="ellipse;whiteSpace=wrap;html=1;" vertex="1" parent="1">
          <mxGeometry x="1410" y="365" width="240" height="80" as="geometry" />
        </mxCell>
        <mxCell id="98" style="rounded=0;orthogonalLoop=1;jettySize=auto;html=1;" edge="1" parent="1" source="93" target="96">
          <mxGeometry relative="1" as="geometry" />
        </mxCell>
        <mxCell id="93" value="if" style="ellipse;whiteSpace=wrap;html=1;" vertex="1" parent="1">
          <mxGeometry x="1500" y="485" width="40" height="35" as="geometry" />
        </mxCell>
        <mxCell id="99" style="rounded=0;orthogonalLoop=1;jettySize=auto;html=1;" edge="1" parent="1" source="96" target="97">
          <mxGeometry relative="1" as="geometry" />
        </mxCell>
        <mxCell id="96" value="calculate_distance(first_word, last_word)" style="ellipse;whiteSpace=wrap;html=1;" vertex="1" parent="1">
          <mxGeometry x="1520" y="540" width="180" height="60" as="geometry" />
        </mxCell>
        <mxCell id="101" style="rounded=0;orthogonalLoop=1;jettySize=auto;html=1;" edge="1" parent="1" source="97" target="100">
          <mxGeometry relative="1" as="geometry" />
        </mxCell>
        <mxCell id="97" value="end if" style="ellipse;whiteSpace=wrap;html=1;" vertex="1" parent="1">
          <mxGeometry x="1490" y="610" width="60" height="30" as="geometry" />
        </mxCell>
        <mxCell id="100" value="end if" style="ellipse;whiteSpace=wrap;html=1;" vertex="1" parent="1">
          <mxGeometry x="1654" y="670" width="66" height="50" as="geometry" />
        </mxCell>
        <mxCell id="103" value="main" style="ellipse;whiteSpace=wrap;html=1;" vertex="1" parent="1">
          <mxGeometry x="2045" y="75" width="110" height="50" as="geometry" />
        </mxCell>
        <mxCell id="104" value="&lt;div&gt;root = tk.Tk()&lt;/div&gt;&lt;div&gt;&amp;nbsp; &amp;nbsp; root.title(&quot;Levenshtein Distance Calculator&quot;)&lt;/div&gt;&lt;div&gt;&amp;nbsp; &amp;nbsp; root.resizable(False, False)&lt;/div&gt;" style="ellipse;whiteSpace=wrap;html=1;" vertex="1" parent="1">
          <mxGeometry x="2002.5" y="160" width="195" height="80" as="geometry" />
        </mxCell>
      </root>
    </mxGraphModel>
  </diagram>
</mxfile>
